<svg width="256" height="256" viewBox="0 0 256 256" fill="none" xmlns="http://www.w3.org/2000/svg">
<g clip-path="url(#clip0_8_2861)">
<rect width="256" height="256" transform="matrix(-1 0 0 -1 256 256)" fill="#444CE7"/>
<rect width="256" height="256" transform="matrix(-1 0 0 -1 256 256)" fill="url(#paint0_linear_8_2861)"/>
<g filter="url(#filter0_d_8_2861)">
<path d="M80.729 76.7829C82.7312 72.6355 86.9303 69.9999 91.5356 69.9999L156.766 69.9999C165.643 69.9999 171.447 79.3046 167.543 87.2772L122.494 179.277C120.479 183.392 116.298 186 111.717 186L47.1218 186C38.2739 186 32.4686 176.751 36.3152 168.783L80.729 76.7829Z" fill="url(#paint1_linear_8_2861)"/>
<path opacity="0.5" d="M196.518 117.04C192.313 107.83 179.295 107.646 174.831 116.733L149.296 168.709C145.378 176.682 151.182 186 160.066 186L209.33 186C218.066 186 223.874 176.963 220.246 169.016L196.518 117.04Z" fill="url(#paint2_linear_8_2861)"/>
</g>
</g>
<defs>
<filter id="filter0_d_8_2861" x="16" y="28" width="224" height="224" filterUnits="userSpaceOnUse" color-interpolation-filters="sRGB">
<feFlood flood-opacity="0" result="BackgroundImageFix"/>
<feColorMatrix in="SourceAlpha" type="matrix" values="0 0 0 0 0 0 0 0 0 0 0 0 0 0 0 0 0 0 127 0" result="hardAlpha"/>
<feMorphology radius="8" operator="erode" in="SourceAlpha" result="effect1_dropShadow_8_2861"/>
<feOffset dy="12"/>
<feGaussianBlur stdDeviation="12"/>
<feComposite in2="hardAlpha" operator="out"/>
<feColorMatrix type="matrix" values="0 0 0 0 0.141176 0 0 0 0 0.141176 0 0 0 0 0.141176 0 0 0 0.1 0"/>
<feBlend mode="normal" in2="BackgroundImageFix" result="effect1_dropShadow_8_2861"/>
<feBlend mode="normal" in="SourceGraphic" in2="effect1_dropShadow_8_2861" result="shape"/>
</filter>
<linearGradient id="paint0_linear_8_2861" x1="128" y1="3.17892e-06" x2="138.667" y2="256" gradientUnits="userSpaceOnUse">
<stop stop-color="white" stop-opacity="0"/>
<stop offset="1" stop-color="white" stop-opacity="0.12"/>
</linearGradient>
<linearGradient id="paint1_linear_8_2861" x1="101.944" y1="186" x2="101.944" y2="69.9999" gradientUnits="userSpaceOnUse">
<stop stop-color="white" stop-opacity="0.8"/>
<stop offset="1" stop-color="white" stop-opacity="0.5"/>
</linearGradient>
<linearGradient id="paint2_linear_8_2861" x1="184.697" y1="186" x2="184.697" y2="110.024" gradientUnits="userSpaceOnUse">
<stop stop-color="white" stop-opacity="0.8"/>
<stop offset="1" stop-color="white" stop-opacity="0.5"/>
</linearGradient>
<clipPath id="clip0_8_2861">
<rect width="256" height="256" fill="white" transform="matrix(-1 0 0 -1 256 256)"/>
</clipPath>
</defs>
</svg>
